<?xml version="1.0" ?><svg height="512" id="svg2" version="1.1" width="512" xmlns="http://www.w3.org/2000/svg" xmlns:cc="http://creativecommons.org/ns#" xmlns:dc="http://purl.org/dc/elements/1.1/" xmlns:inkscape="http://www.inkscape.org/namespaces/inkscape" xmlns:rdf="http://www.w3.org/1999/02/22-rdf-syntax-ns#" xmlns:sodipodi="http://sodipodi.sourceforge.net/DTD/sodipodi-0.dtd" xmlns:svg="http://www.w3.org/2000/svg"><defs id="defs4"/><g id="layer1" transform="translate(0,-540.36218)"><path d="m 226.45564,634.24956 c -8.4461,0 -15.2151,6.8847 -15.2151,15.3304 l 0,302.82317 c 0,8.446 6.769,15.2145 15.2151,15.2145 l 33.5516,0 c 8.4447,0 15.2905,-6.7685 15.2905,-15.2145 l 0,-302.82317 c 0,-8.4457 -6.8458,-15.3304 -15.2905,-15.3304 z m -128.650401,85.881 c -9.6755,0 -17.4542,7.8559 -17.4542,17.5315 l 0,27.7645 c -0.1606,0 -0.3348,-0.026 -0.5016,-0.039 l 0,71.05267 c 0.168,-0.013 0.341,-0.039 0.5016,-0.039 l 0,27.7646 c 0,9.6752 7.7787,17.5314 17.4542,17.5314 5.060301,0 9.599001,-2.1426 12.780901,-5.5605 l 0.1556,-0.1546 c 0.1892,-0.2076 0.3609,-0.4404 0.5401,-0.6563 l 62.1321,-62.05527 c 0.4276,-0.4285 0.8625,-0.8546 1.2356,-1.3129 2.6086,-3.1932 3.9148,-7.1552 3.9395,-11.0441 0,-1.133 -0.1261,-2.2438 -0.3484,-3.3596 -0.1021,-0.5338 -0.2311,-1.0209 -0.3856,-1.5447 l 0,-0.1161 c -0.1556,-0.5239 -0.3348,-0.9957 -0.5412,-1.506 l 0,-0.039 c -0.2138,-0.5253 -0.4275,-1.038 -0.6945,-1.5446 -0.54,-1.0244 -1.211,-2.0106 -1.9698,-2.9348 -0.3657,-0.4486 -0.8167,-0.8168 -1.2356,-1.2358 l 0,-0.076 c -0.2138,-0.2137 -0.4337,-0.4563 -0.6562,-0.6565 l -61.4759,-61.3988 c -0.2249,-0.2719 -0.4547,-0.5539 -0.6957,-0.8109 -3.1819,-3.4178 -7.7206,-5.5606 -12.780901,-5.5606 z m 295.816801,0 c -5.0602,0 -9.5977,2.1428 -12.7821,5.5606 -0.2396,0.2571 -0.4695,0.5391 -0.6945,0.8109 l -61.4759,61.3988 c -0.2224,0.2002 -0.4424,0.4428 -0.6562,0.6565 l 0,0.076 c -0.4188,0.419 -0.8699,0.7872 -1.2356,1.2357 -0.7588,0.9242 -1.4298,1.9104 -1.9697,2.9348 -0.2669,0.5067 -0.4807,1.0194 -0.6957,1.5446 l 0,0.039 c -0.2051,0.5104 -0.3843,0.9821 -0.54,1.5059 l 0,0.1162 c -0.1545,0.5237 -0.283,1.0108 -0.3868,1.5446 -0.2212,1.1159 -0.3472,2.2267 -0.3472,3.3596 0.025,3.8889 1.3308,7.8509 3.9394,11.0441 0.3731,0.4583 0.8081,0.8843 1.2356,1.3129 l 62.1321,62.05527 c 0.1792,0.216 0.351,0.4488 0.5414,0.6564 l 0.1531,0.1544 c 3.1832,3.4179 7.7219,5.5607 12.7821,5.5607 9.6755,0 17.4542,-7.8562 17.4542,-17.5315 l 0,-27.7645 c 0.1607,0 0.3349,0.029 0.5029,0.039 l 0,-71.05257 c -0.168,0.013 -0.3422,0.039 -0.5029,0.039 l 0,-27.7645 c 0,-9.6755 -7.7787,-17.5315 -17.4542,-17.5315 z" id="path4164-2" style="fill:#000000;fill-opacity:1;stroke:none"/></g></svg>