<?xml version="1.0" ?><!DOCTYPE svg  PUBLIC '-//W3C//DTD SVG 1.1//EN'  'http://www.w3.org/Graphics/SVG/1.1/DTD/svg11.dtd'><svg enable-background="new 0 0 64 64" height="64px" id="Layer_1" version="1.1" viewBox="0 0 64 64" width="64px" xml:space="preserve" xmlns="http://www.w3.org/2000/svg" xmlns:xlink="http://www.w3.org/1999/xlink"><g><path d="M25.033,39.041c-0.021-0.023-0.021-0.043-0.049-0.065c-0.857-0.746-0.907-2.152-0.907-2.152V5.826   c0-4.777-2.893-5.651-4.425-5.782h-7.15c-0.807,0.021-4.144,0.381-4.144,4.808V36.75c0,0,0.012,1.455-0.793,2.136   c-0.029,0.022-0.02,0.038-0.04,0.06c-3.241,2.569-5.337,6.522-5.337,10.981c0,7.748,6.281,14.029,14.029,14.029   s14.029-6.281,14.029-14.029C30.246,45.524,28.205,41.612,25.033,39.041z M16.217,57.202c-3.766,0-6.82-3.055-6.82-6.82   c0-2.204,1.06-4.139,2.687-5.377c-0.003-0.001-0.003-0.003-0.005-0.004c2.049-1.646,2.427-3.816,2.481-4.896v-6.448   c0-1.681,1.34-1.656,1.34-1.656h0.726c0.266,0.006,1.247,0.126,1.247,1.559v6.787c0.012,0.505,0.201,2.63,2.413,4.61   c0.003,0.003,0.004,0.005,0.007,0.008c1.66,1.236,2.743,3.189,2.743,5.418C23.037,54.147,19.983,57.202,16.217,57.202z" fill="#241F20"/><path d="M56.599,39.041c-0.021-0.023-0.021-0.043-0.049-0.065c-0.856-0.746-0.907-2.152-0.907-2.152V5.826   c0-4.777-2.893-5.651-4.425-5.782h-7.152c-0.807,0.021-4.142,0.381-4.142,4.808V36.75c0,0,0.011,1.455-0.793,2.136   c-0.028,0.022-0.021,0.038-0.04,0.06c-3.242,2.569-5.337,6.522-5.337,10.981c0,7.748,6.28,14.029,14.029,14.029   c7.748,0,14.029-6.281,14.029-14.029C61.812,45.524,59.771,41.612,56.599,39.041z M47.783,57.202c-3.767,0-6.82-3.055-6.82-6.82   c0-2.204,1.06-4.139,2.686-5.377c0-0.001-0.001-0.003-0.003-0.004c2.049-1.646,2.427-3.816,2.481-4.896v-5.312h-0.024V18.068   c0-1.505,0.957-1.65,1.277-1.658h0.76c0.374,0.014,1.3,0.172,1.3,1.438v15.71v1.233v5.554c0.012,0.505,0.201,2.63,2.413,4.61   c0.003,0.003,0.004,0.005,0.007,0.008c1.66,1.236,2.743,3.189,2.743,5.418C54.603,54.147,51.549,57.202,47.783,57.202z" fill="#241F20"/></g></svg>